<svg width="163" height="89" viewBox="0 0 163 89" fill="none" xmlns="http://www.w3.org/2000/svg">
<path fill-rule="evenodd" clip-rule="evenodd" d="M9 0C4.02944 0 0 4.02944 0 9V63.8982C0 68.8688 4.02942 72.8982 8.99998 72.8982H148.759L161.609 88.8616L162.385 87.7999L161.29 33.2186V9C161.29 4.02944 157.26 0 152.29 0H9Z" fill="white"/>
<path d="M38.92 42.644V47H24.304V42.644H29.416V31.736C29.2 32.024 28.852 32.324 28.372 32.636C27.916 32.924 27.412 33.2 26.86 33.464C26.308 33.728 25.732 33.944 25.132 34.112C24.556 34.28 24.04 34.364 23.584 34.364V29.864C24.016 29.864 24.544 29.732 25.168 29.468C25.792 29.18 26.404 28.844 27.004 28.46C27.604 28.076 28.12 27.704 28.552 27.344C29.008 26.96 29.296 26.66 29.416 26.444H34.348V42.644H38.92ZM59.9491 39.44C59.9491 40.64 59.6971 41.72 59.1931 42.68C58.7131 43.64 58.0411 44.468 57.1771 45.164C56.3371 45.86 55.3531 46.4 54.2251 46.784C53.0971 47.144 51.8971 47.324 50.6251 47.324C49.3531 47.324 48.1531 47.132 47.0251 46.748C45.8971 46.34 44.9131 45.776 44.0731 45.056C43.2331 44.336 42.5731 43.484 42.0931 42.5C41.6131 41.516 41.3731 40.436 41.3731 39.26C41.3731 38.54 41.4931 37.88 41.7331 37.28C41.9731 36.656 42.2851 36.092 42.6691 35.588C43.0531 35.084 43.4731 34.64 43.9291 34.256C44.4091 33.872 44.8891 33.56 45.3691 33.32C44.4811 32.888 43.7251 32.24 43.1011 31.376C42.4771 30.512 42.1651 29.564 42.1651 28.532C42.1651 27.38 42.4171 26.372 42.9211 25.508C43.4491 24.62 44.1211 23.876 44.9371 23.276C45.7771 22.676 46.6891 22.22 47.6731 21.908C48.6811 21.596 49.6771 21.44 50.6611 21.44C51.6211 21.44 52.6051 21.596 53.6131 21.908C54.6451 22.196 55.5691 22.64 56.3851 23.24C57.2011 23.84 57.8731 24.584 58.4011 25.472C58.9291 26.336 59.1931 27.344 59.1931 28.496C59.1931 29 59.1091 29.504 58.9411 30.008C58.7731 30.488 58.5331 30.944 58.2211 31.376C57.9331 31.784 57.5851 32.156 57.1771 32.492C56.7691 32.828 56.3371 33.104 55.8811 33.32C56.4091 33.584 56.9131 33.92 57.3931 34.328C57.8731 34.712 58.3051 35.168 58.6891 35.696C59.0731 36.2 59.3731 36.764 59.5891 37.388C59.8291 38.012 59.9491 38.696 59.9491 39.44ZM55.0531 39.152C55.0531 38.552 54.9211 38.012 54.6571 37.532C54.4171 37.052 54.0811 36.656 53.6491 36.344C53.2411 36.008 52.7731 35.756 52.2451 35.588C51.7171 35.42 51.1771 35.336 50.6251 35.336C50.0491 35.336 49.4971 35.432 48.9691 35.624C48.4411 35.792 47.9731 36.044 47.5651 36.38C47.1811 36.716 46.8691 37.124 46.6291 37.604C46.3891 38.06 46.2691 38.576 46.2691 39.152C46.2691 39.728 46.3891 40.256 46.6291 40.736C46.8931 41.192 47.2291 41.588 47.6371 41.924C48.0451 42.26 48.5131 42.524 49.0411 42.716C49.5691 42.884 50.1091 42.968 50.6611 42.968C51.2371 42.968 51.7891 42.872 52.3171 42.68C52.8451 42.488 53.3131 42.224 53.7211 41.888C54.1291 41.552 54.4531 41.156 54.6931 40.7C54.9331 40.22 55.0531 39.704 55.0531 39.152ZM47.0611 28.676C47.0611 29.18 47.1691 29.624 47.3851 30.008C47.6011 30.368 47.8771 30.68 48.2131 30.944C48.5731 31.184 48.9571 31.376 49.3651 31.52C49.7971 31.64 50.2291 31.7 50.6611 31.7C51.0691 31.7 51.4891 31.64 51.9211 31.52C52.3531 31.376 52.7371 31.172 53.0731 30.908C53.4331 30.644 53.7211 30.332 53.9371 29.972C54.1531 29.588 54.2611 29.144 54.2611 28.64C54.2611 27.752 53.9011 27.044 53.1811 26.516C52.4851 25.988 51.6331 25.724 50.6251 25.724C49.6411 25.724 48.8011 26 48.1051 26.552C47.4091 27.08 47.0611 27.788 47.0611 28.676ZM71.9556 35.516C73.1556 35.516 74.2716 35.72 75.3036 36.128C76.3356 36.512 77.2236 37.064 77.9676 37.784C78.7116 38.504 79.2876 39.368 79.6956 40.376C80.1276 41.384 80.3436 42.5 80.3436 43.724C80.3436 45.02 80.1036 46.196 79.6236 47.252C79.1676 48.308 78.5196 49.208 77.6796 49.952C76.8396 50.72 75.8436 51.308 74.6916 51.716C73.5396 52.148 72.2916 52.364 70.9476 52.364C69.0756 52.364 67.3956 51.968 65.9076 51.176C64.4436 50.384 63.3276 49.304 62.5596 47.936L65.3316 45.056C66.0036 45.992 66.8436 46.736 67.8516 47.288C68.8596 47.84 69.9036 48.116 70.9836 48.116C72.2796 48.116 73.3356 47.732 74.1516 46.964C74.9916 46.172 75.4116 45.128 75.4116 43.832C75.4116 42.584 75.0156 41.576 74.2236 40.808C73.4556 40.04 72.4716 39.656 71.2716 39.656C70.4796 39.656 69.7356 39.836 69.0396 40.196C68.3676 40.556 67.8276 41.048 67.4196 41.672H63.2076C63.2076 41.6 63.2556 41.336 63.3516 40.88C63.4476 40.4 63.5676 39.8 63.7116 39.08C63.8556 38.336 64.0116 37.52 64.1796 36.632C64.3476 35.72 64.5276 34.796 64.7196 33.86C65.1516 31.652 65.6316 29.18 66.1596 26.444H78.7596V30.836H69.6516L68.6076 36.56C68.8956 36.248 69.3156 35.996 69.8676 35.804C70.4436 35.612 71.1396 35.516 71.9556 35.516Z" fill="black"/>
<path d="M93.924 36.944C93.204 37.688 92.376 38.06 91.44 38.06C90.872 38.06 90.344 37.944 89.856 37.712C89.368 37.472 88.944 37.152 88.584 36.752C88.224 36.352 87.94 35.888 87.732 35.36C87.532 34.832 87.432 34.28 87.432 33.704C87.432 33.128 87.532 32.58 87.732 32.06C87.94 31.54 88.224 31.084 88.584 30.692C88.944 30.3 89.372 29.992 89.868 29.768C90.364 29.536 90.904 29.42 91.488 29.42C92.304 29.42 92.988 29.592 93.54 29.936C94.092 30.272 94.508 30.72 94.788 31.28L93.756 32.024C93.524 31.56 93.204 31.212 92.796 30.98C92.388 30.748 91.94 30.632 91.452 30.632C91.052 30.632 90.688 30.72 90.36 30.896C90.032 31.064 89.752 31.292 89.52 31.58C89.288 31.86 89.108 32.188 88.98 32.564C88.86 32.94 88.8 33.332 88.8 33.74C88.8 34.172 88.868 34.576 89.004 34.952C89.148 35.328 89.34 35.656 89.58 35.936C89.828 36.216 90.12 36.44 90.456 36.608C90.792 36.768 91.156 36.848 91.548 36.848C91.98 36.848 92.392 36.748 92.784 36.548C93.184 36.348 93.564 36.032 93.924 35.6V34.688H92.136V33.692H95.052V38H93.924V36.944ZM103.281 35.804C103.281 36.148 103.209 36.456 103.065 36.728C102.929 37 102.741 37.232 102.501 37.424C102.269 37.608 101.993 37.752 101.673 37.856C101.353 37.952 101.013 38 100.653 38H96.585V29.48H100.977C101.273 29.48 101.541 29.544 101.781 29.672C102.021 29.8 102.225 29.968 102.393 30.176C102.561 30.376 102.689 30.608 102.777 30.872C102.873 31.128 102.921 31.388 102.921 31.652C102.921 32.068 102.813 32.46 102.597 32.828C102.389 33.188 102.089 33.456 101.697 33.632C102.185 33.776 102.569 34.04 102.849 34.424C103.137 34.8 103.281 35.26 103.281 35.804ZM101.901 35.552C101.901 35.376 101.869 35.208 101.805 35.048C101.749 34.888 101.669 34.748 101.565 34.628C101.469 34.508 101.349 34.412 101.205 34.34C101.061 34.268 100.905 34.232 100.737 34.232H97.929V36.836H100.653C100.829 36.836 100.993 36.804 101.145 36.74C101.297 36.668 101.429 36.576 101.541 36.464C101.653 36.344 101.741 36.208 101.805 36.056C101.869 35.896 101.901 35.728 101.901 35.552ZM97.929 30.644V33.152H100.401C100.569 33.152 100.721 33.12 100.857 33.056C101.001 32.992 101.125 32.908 101.229 32.804C101.341 32.692 101.425 32.56 101.481 32.408C101.545 32.256 101.577 32.088 101.577 31.904C101.577 31.536 101.473 31.236 101.265 31.004C101.057 30.764 100.793 30.644 100.473 30.644H97.929ZM107.648 38V29.48H108.992V36.812H113.564V38H107.648ZM120.499 36.812V38H114.655V29.48H120.391V30.668H115.999V33.092H119.803V34.208H115.999V36.812H120.499ZM121.886 38V29.48H127.562V30.668H123.23V33.212H126.854V34.328H123.23V38H121.886ZM135.087 30.668H132.255V38H130.899V30.668H128.055V29.48H135.087V30.668Z" fill="#999A9D"/>
</svg>
