<svg width="170" height="65" viewBox="0 0 170 65" fill="none" xmlns="http://www.w3.org/2000/svg">
<rect width="170" height="65" rx="9" fill="white"/>
<path d="M104.391 36.6404C103.671 37.3844 102.843 37.7564 101.907 37.7564C101.339 37.7564 100.811 37.6404 100.323 37.4084C99.8347 37.1684 99.4107 36.8484 99.0507 36.4484C98.6907 36.0484 98.4067 35.5844 98.1987 35.0564C97.9987 34.5284 97.8987 33.9764 97.8987 33.4004C97.8987 32.8244 97.9987 32.2764 98.1987 31.7564C98.4067 31.2364 98.6907 30.7804 99.0507 30.3884C99.4107 29.9964 99.8387 29.6884 100.335 29.4644C100.831 29.2324 101.371 29.1164 101.955 29.1164C102.771 29.1164 103.455 29.2884 104.007 29.6324C104.559 29.9684 104.975 30.4164 105.255 30.9764L104.223 31.7204C103.991 31.2564 103.671 30.9084 103.263 30.6764C102.855 30.4444 102.407 30.3284 101.919 30.3284C101.519 30.3284 101.155 30.4164 100.827 30.5924C100.499 30.7604 100.219 30.9884 99.9867 31.2764C99.7547 31.5564 99.5747 31.8844 99.4467 32.2604C99.3267 32.6364 99.2667 33.0284 99.2667 33.4364C99.2667 33.8684 99.3347 34.2724 99.4707 34.6484C99.6147 35.0244 99.8067 35.3524 100.047 35.6324C100.295 35.9124 100.587 36.1364 100.923 36.3044C101.259 36.4644 101.623 36.5444 102.015 36.5444C102.447 36.5444 102.859 36.4444 103.251 36.2444C103.651 36.0444 104.031 35.7284 104.391 35.2964V34.3844H102.603V33.3884H105.519V37.6964H104.391V36.6404ZM113.748 35.5004C113.748 35.8444 113.676 36.1524 113.532 36.4244C113.396 36.6964 113.208 36.9284 112.968 37.1204C112.736 37.3044 112.46 37.4484 112.14 37.5524C111.82 37.6484 111.48 37.6964 111.12 37.6964H107.052V29.1764H111.444C111.74 29.1764 112.008 29.2404 112.248 29.3684C112.488 29.4964 112.692 29.6644 112.86 29.8724C113.028 30.0724 113.156 30.3044 113.244 30.5684C113.34 30.8244 113.388 31.0844 113.388 31.3484C113.388 31.7644 113.28 32.1564 113.064 32.5244C112.856 32.8844 112.556 33.1524 112.164 33.3284C112.652 33.4724 113.036 33.7364 113.316 34.1204C113.604 34.4964 113.748 34.9564 113.748 35.5004ZM112.368 35.2484C112.368 35.0724 112.336 34.9044 112.272 34.7444C112.216 34.5844 112.136 34.4444 112.032 34.3244C111.936 34.2044 111.816 34.1084 111.672 34.0364C111.528 33.9644 111.372 33.9284 111.204 33.9284H108.396V36.5324H111.12C111.296 36.5324 111.46 36.5004 111.612 36.4364C111.764 36.3644 111.896 36.2724 112.008 36.1604C112.12 36.0404 112.208 35.9044 112.272 35.7524C112.336 35.5924 112.368 35.4244 112.368 35.2484ZM108.396 30.3404V32.8484H110.868C111.036 32.8484 111.188 32.8164 111.324 32.7524C111.468 32.6884 111.592 32.6044 111.696 32.5004C111.808 32.3884 111.892 32.2564 111.948 32.1044C112.012 31.9524 112.044 31.7844 112.044 31.6004C112.044 31.2324 111.94 30.9324 111.732 30.7004C111.524 30.4604 111.26 30.3404 110.94 30.3404H108.396ZM118.114 37.6964V29.1764H119.458V36.5084H124.03V37.6964H118.114ZM130.966 36.5084V37.6964H125.122V29.1764H130.858V30.3644H126.466V32.7884H130.27V33.9044H126.466V36.5084H130.966ZM132.352 37.6964V29.1764H138.028V30.3644H133.696V32.9084H137.32V34.0244H133.696V37.6964H132.352ZM145.554 30.3644H142.722V37.6964H141.366V30.3644H138.522V29.1764H145.554V30.3644Z" fill="#999A9D"/>
<path d="M40.72 36.6083V40.9643H26.104V36.6083H31.216V25.7003C31 25.9883 30.652 26.2883 30.172 26.6003C29.716 26.8883 29.212 27.1643 28.66 27.4283C28.108 27.6923 27.532 27.9083 26.932 28.0763C26.356 28.2443 25.84 28.3283 25.384 28.3283V23.8283C25.816 23.8283 26.344 23.6963 26.968 23.4323C27.592 23.1443 28.204 22.8083 28.804 22.4243C29.404 22.0403 29.92 21.6683 30.352 21.3083C30.808 20.9243 31.096 20.6243 31.216 20.4083H36.148V36.6083H40.72ZM61.7491 33.4043C61.7491 34.6043 61.4971 35.6843 60.9931 36.6443C60.5131 37.6043 59.8411 38.4323 58.9771 39.1283C58.1371 39.8243 57.1531 40.3643 56.0251 40.7483C54.8971 41.1083 53.6971 41.2883 52.4251 41.2883C51.1531 41.2883 49.9531 41.0963 48.8251 40.7123C47.6971 40.3043 46.7131 39.7403 45.8731 39.0203C45.0331 38.3003 44.3731 37.4483 43.8931 36.4643C43.4131 35.4803 43.1731 34.4003 43.1731 33.2243C43.1731 32.5043 43.2931 31.8443 43.5331 31.2443C43.7731 30.6203 44.0851 30.0563 44.4691 29.5523C44.8531 29.0483 45.2731 28.6043 45.7291 28.2203C46.2091 27.8363 46.6891 27.5243 47.1691 27.2843C46.2811 26.8523 45.5251 26.2043 44.9011 25.3403C44.2771 24.4763 43.9651 23.5283 43.9651 22.4963C43.9651 21.3443 44.2171 20.3363 44.7211 19.4723C45.2491 18.5843 45.9211 17.8403 46.7371 17.2403C47.5771 16.6403 48.4891 16.1843 49.4731 15.8723C50.4811 15.5603 51.4771 15.4043 52.4611 15.4043C53.4211 15.4043 54.4051 15.5603 55.4131 15.8723C56.4451 16.1603 57.3691 16.6043 58.1851 17.2043C59.0011 17.8043 59.6731 18.5483 60.2011 19.4363C60.7291 20.3003 60.9931 21.3083 60.9931 22.4603C60.9931 22.9643 60.9091 23.4683 60.7411 23.9723C60.5731 24.4523 60.3331 24.9083 60.0211 25.3403C59.7331 25.7483 59.3851 26.1203 58.9771 26.4563C58.5691 26.7923 58.1371 27.0683 57.6811 27.2843C58.2091 27.5483 58.7131 27.8843 59.1931 28.2923C59.6731 28.6763 60.1051 29.1323 60.4891 29.6603C60.8731 30.1643 61.1731 30.7283 61.3891 31.3523C61.6291 31.9763 61.7491 32.6603 61.7491 33.4043ZM56.8531 33.1163C56.8531 32.5163 56.7211 31.9763 56.4571 31.4963C56.2171 31.0163 55.8811 30.6203 55.4491 30.3083C55.0411 29.9723 54.5731 29.7203 54.0451 29.5523C53.5171 29.3843 52.9771 29.3003 52.4251 29.3003C51.8491 29.3003 51.2971 29.3963 50.7691 29.5883C50.2411 29.7563 49.7731 30.0083 49.3651 30.3443C48.9811 30.6803 48.6691 31.0883 48.4291 31.5683C48.1891 32.0243 48.0691 32.5403 48.0691 33.1163C48.0691 33.6923 48.1891 34.2203 48.4291 34.7003C48.6931 35.1563 49.0291 35.5523 49.4371 35.8883C49.8451 36.2243 50.3131 36.4883 50.8411 36.6803C51.3691 36.8483 51.9091 36.9323 52.4611 36.9323C53.0371 36.9323 53.5891 36.8363 54.1171 36.6443C54.6451 36.4523 55.1131 36.1883 55.5211 35.8523C55.9291 35.5163 56.2531 35.1203 56.4931 34.6643C56.7331 34.1843 56.8531 33.6683 56.8531 33.1163ZM48.8611 22.6403C48.8611 23.1443 48.9691 23.5883 49.1851 23.9723C49.4011 24.3323 49.6771 24.6443 50.0131 24.9083C50.3731 25.1483 50.7571 25.3403 51.1651 25.4843C51.5971 25.6043 52.0291 25.6643 52.4611 25.6643C52.8691 25.6643 53.2891 25.6043 53.7211 25.4843C54.1531 25.3403 54.5371 25.1363 54.8731 24.8723C55.2331 24.6083 55.5211 24.2963 55.7371 23.9363C55.9531 23.5523 56.0611 23.1083 56.0611 22.6043C56.0611 21.7163 55.7011 21.0083 54.9811 20.4803C54.2851 19.9523 53.4331 19.6883 52.4251 19.6883C51.4411 19.6883 50.6011 19.9643 49.9051 20.5163C49.2091 21.0443 48.8611 21.7523 48.8611 22.6403ZM73.7556 29.4803C74.9556 29.4803 76.0716 29.6843 77.1036 30.0923C78.1356 30.4763 79.0236 31.0283 79.7676 31.7483C80.5116 32.4683 81.0876 33.3323 81.4956 34.3403C81.9276 35.3483 82.1436 36.4643 82.1436 37.6883C82.1436 38.9843 81.9036 40.1603 81.4236 41.2163C80.9676 42.2723 80.3196 43.1723 79.4796 43.9163C78.6396 44.6843 77.6436 45.2723 76.4916 45.6803C75.3396 46.1123 74.0916 46.3283 72.7476 46.3283C70.8756 46.3283 69.1956 45.9323 67.7076 45.1403C66.2436 44.3483 65.1276 43.2683 64.3596 41.9003L67.1316 39.0203C67.8036 39.9563 68.6436 40.7003 69.6516 41.2523C70.6596 41.8043 71.7036 42.0803 72.7836 42.0803C74.0796 42.0803 75.1356 41.6963 75.9516 40.9283C76.7916 40.1363 77.2116 39.0923 77.2116 37.7963C77.2116 36.5483 76.8156 35.5403 76.0236 34.7723C75.2556 34.0043 74.2716 33.6203 73.0716 33.6203C72.2796 33.6203 71.5356 33.8003 70.8396 34.1603C70.1676 34.5203 69.6276 35.0123 69.2196 35.6363H65.0076C65.0076 35.5643 65.0556 35.3003 65.1516 34.8443C65.2476 34.3643 65.3676 33.7643 65.5116 33.0443C65.6556 32.3003 65.8116 31.4843 65.9796 30.5963C66.1476 29.6843 66.3276 28.7603 66.5196 27.8243C66.9516 25.6163 67.4316 23.1443 67.9596 20.4083H80.5596V24.8003H71.4516L70.4076 30.5243C70.6956 30.2123 71.1156 29.9603 71.6676 29.7683C72.2436 29.5763 72.9396 29.4803 73.7556 29.4803Z" fill="black"/>
</svg>
